<?xml version="1.0" encoding="UTF-8"?>
<svg id="screen_demo" data-name="screen demo" xmlns="http://www.w3.org/2000/svg" viewBox="0 0 327.12 249.2">
  <defs>
    <style>
      .cls-1 {
        fill: #ce3d3d;
        stroke-width: 0px;
      }
    </style>
  </defs>
  <g>
    <path class="cls-1" d="m87.33,187.88c-.08,1.63-.16,4.1-.16,6.74,0,2.87.08,5.19.16,6.89h-.39c-.16-2.56-1.24-3.41-2.71-3.41-1.08,0-2.48.46-4.03.93l-8.44,2.63c-.08,4.18-.08,8.36-.08,12.54,0,2.94,0,5.81.08,8.75l6.5,2.4c1.94.7,3.79,1.32,5.27,1.32,1.78,0,3.1-.93,3.41-3.56h.39c-.08,1.7-.16,4.34-.16,7.2,0,2.63.08,3.64.16,5.26h-.39c-.93-3.95-1.86-5.19-10.69-8.52l-35.54-13.4c-1.63-.62-2.94-.85-4.1-.85-3.1,0-4.8,1.94-5.34,5.5h-.39c.08-1.55.15-5.81.15-8.29,0-3.95-.08-7.59-.15-9.06h.39c.39,2.25.85,5.5,4.49,5.5.77,0,1.78-.16,2.94-.54l42.43-13.4c4.88-1.55,5.42-1.7,5.81-4.65h.39Zm-22.61,16.03v8.29c0,2.79,0,5.42.08,8.21l4.57,1.7c.08-2.63.08-5.26.08-7.9,0-3.95,0-7.82-.08-11.77l-4.65,1.47Zm-24.24,7.51l21.91,8.05c.08-2.4.08-4.8.08-7.28v-7.59l-21.99,6.81Z"/>
    <path class="cls-1" d="m93.22,122.6c3.64,3.02,5.58,6.89,5.58,10.84-.08,6.66-3.79,15.25-36.78,30.51v4.03h17.89c6.19,0,6.58-1.01,7.05-3.87h.39c-.08,1.63-.16,4.1-.16,6.74,0,2.87.08,5.03.16,6.74h-.39c-.46-2.87-.85-3.87-7.05-3.87h-41.58c-5.19,0-6.58.77-7.05,3.72h-.39c.15-2.63.15-4.03.15-7.43,0-2.32-.15-6.35-.15-8.05,0-11.77,6.5-18.27,15.49-18.27,6.5,0,12.78,4.34,14.87,13.47.08.23.15.47.15.7,28.03-13.7,33.68-20.36,33.68-27.95,0-2.94-.93-5.73-2.25-7.05l.39-.23Zm-32.83,41.66c0-11.15-5.65-14.09-13.01-14.09-8.21,0-14.71,4.18-14.71,12.23,0,1.78.16,3.33.77,5.58h26.95v-3.72Z"/>
    <path class="cls-1" d="m87.33,107.12c-.08,1.63-.16,4.1-.16,6.74,0,2.86.08,5.03.16,6.74h-.39c-.46-2.86-.85-3.87-7.05-3.87h-45.92c0,12.23,0,15.87,4.96,18.2v.39c-3.1-.62-4.88-1.7-9.83-2.63v-.39c2.48-.23,2.55-2.09,2.55-16.8,0-17.5,0-20.44-1.94-22.69v-.46c1.24.54,6.58,2.09,8.29,2.4v.46c-.31-.08-.77-.16-1.16-.16-2.4,0-2.86,2.25-2.86,15.95h45.92c6.19,0,6.58-1.01,7.05-3.87h.39Z"/>
  </g>
  <g>
    <path class="cls-1" d="m120.14,99.82l-10.53-28.03-11.15,28.03h-.47l-18.27-49.32c-4.18-11.38-7.36-19.75-16.73-19.75-2.09,0-4.03.31-5.03,1.16l-.23-.62c2.94-2.25,6.27-3.48,9.45-3.48,7.67,0,12.23,5.34,15.25,13.55l17.5,47,8.29-20.37-7.51-19.98c-1.7-4.41-3.17-5.11-6.19-5.81v-.39c1.63.08,5.34.15,7.98.15,2.86,0,4.72-.08,6.43-.15v.39c-2.32.31-3.1,1.24-3.1,2.63,0,1.08.46,2.48,1.08,4.1l4.41,11.38,1.47-3.64c1.94-4.72,3.17-8.13,3.17-10.53,0-2.25-1.16-3.56-3.87-3.95v-.39c1.7.08,6.12.15,8.98.15,2.63,0,3.49-.08,5.11-.15v.39c-3.87.77-5.65,2.01-11,15.49l-2.48,6.27,9.37,24.39,12-31.67c1.86-4.88,2.87-8.13,2.87-10.38,0-2.48-1.32-3.72-4.26-4.26v-.23c1.7.08,6.81.15,9.68.15,2.63,0,3.48-.08,5.11-.15v.23c-3.87,1.08-5.57,1.32-11,15.64l-15.87,42.12h-.46Z"/>
    <path class="cls-1" d="m151.27,70.48c0-14.63,10.76-29.11,28.34-29.11,15.18,0,27.57,12.31,27.57,28.88s-12.08,28.57-28.19,28.57c-17.19,0-27.72-14.09-27.72-28.34Zm48.78.31c0-19.59-10.61-27.64-21.06-27.64s-20.52,7.82-20.52,27.18,9.21,26.79,20.52,26.79,21.06-8.44,21.06-26.33Zm-21.06,7.59c-.23-5.11-2.55-7.67-7.05-8.05v-.16c4.49-.39,6.81-2.94,7.05-8.05h.16c.23,5.11,2.56,7.74,7.05,8.05v.16c-4.49.31-6.81,2.94-7.05,8.05h-.16Z"/>
    <path class="cls-1" d="m258.97,98.35c-.7.08-1.01.08-1.94.08-7.98-.31-8.98-1.24-18.04-18.43-.93-1.7-2.63-5.58-4.34-7.05h-4.96v17.89c0,6.19,1.01,6.58,3.87,7.05v.39c-1.63-.08-4.1-.16-6.74-.16-2.87,0-5.03.08-6.74.16v-.39c2.87-.46,3.87-.85,3.87-7.05v-41.58c0-5.19-.77-6.58-3.72-7.05v-.39c2.63.15,4.03.15,7.43.15,2.32,0,6.35-.15,8.05-.15,11.77,0,18.27,6.5,18.27,15.49,0,6.5-4.34,12.78-13.47,14.87,2.48,1.94,11.07,23.15,18.43,25.71v.46Zm-25.55-27.02c11.15,0,14.09-5.65,14.09-13.01,0-8.21-4.18-14.71-12.23-14.71-1.78,0-3.33.16-5.58.77v26.95h3.72Z"/>
    <path class="cls-1" d="m310.93,98.28c-1.63-.08-4.41-.16-7.05-.16-2.86,0-5.11.08-6.81.16v-.39c1.7-.16,2.25-.54,2.25-1.16,0-1.01-1.55-2.48-3.1-4.41l-17.81-21.6v20.13c0,6.19,1.01,6.58,3.87,7.05v.39c-1.63-.08-4.1-.16-6.74-.16-2.87,0-5.03.08-6.74.16v-.39c2.86-.46,3.87-.85,3.87-7.05v-41.58c0-6.19-1.01-6.58-3.87-7.05v-.39c1.7.08,3.87.15,6.74.15,2.63,0,5.11-.08,6.74-.15v.39c-2.87.46-3.87.85-3.87,7.05v19.82l11.15-12.39c6.5-7.2,9.91-11,9.91-12.93,0-.93-.54-1.39-2.25-1.55v-.39c1.7.08,3.48.15,6.35.15,2.63,0,5.27-.08,6.89-.15v.39c-4.8.93-9.83,6.58-27.64,25.32l21.06,24.93c3.1,3.72,4.41,5.34,7.05,5.42v.39Z"/>
  </g>
</svg>