<?xml version="1.0" encoding="UTF-8"?>
<svg id="screen_demo" data-name="screen demo" xmlns="http://www.w3.org/2000/svg" viewBox="0 0 327.12 249.2">
  <defs>
    <style>
      .cls-1 {
        fill: #ce3d3d;
        stroke-width: 0px;
      }
    </style>
  </defs>
  <path class="cls-1" d="m62.68,136.59c-1.32-.06-3.34-.13-5.48-.13-2.33,0-4.22.06-5.61.13v-.32c2.08-.12,2.77-1.01,2.77-2.2,0-.88-.38-2.02-.76-3.28l-2.14-6.87c-3.4-.06-6.8-.06-10.2-.06-2.39,0-4.72,0-7.12.06l-1.95,5.29c-.57,1.58-1.07,3.09-1.07,4.28,0,1.45.76,2.52,2.9,2.77v.32c-1.39-.06-3.53-.13-5.86-.13-2.14,0-2.96.06-4.28.13v-.32c3.21-.76,4.22-1.51,6.93-8.69l14.24-37.86h.63l13.23,41.82c1.26,3.97,1.39,4.41,3.78,4.72v.32Zm-13.04-18.39h-6.74c-2.27,0-4.41,0-6.68.06l-1.39,3.72c2.14.06,4.28.06,6.42.06,3.21,0,6.36,0,9.57-.06l-1.2-3.78Zm-6.11-19.72l-6.55,17.83c1.95.06,3.91.06,5.92.06h6.17l-5.54-17.89Z"/>
  <path class="cls-1" d="m97.83,136.65c-.57.06-.82.06-1.57.06-6.49-.25-7.31-1.01-14.68-14.99-.76-1.39-2.14-4.54-3.53-5.73h-4.03v14.55c0,5.04.82,5.35,3.15,5.73v.32c-1.32-.06-3.34-.13-5.48-.13-2.33,0-4.09.06-5.48.13v-.32c2.33-.38,3.15-.69,3.15-5.73v-33.83c0-4.22-.63-5.35-3.02-5.73v-.32c2.14.13,3.28.13,6.05.13,1.89,0,5.17-.13,6.55-.13,9.57,0,14.87,5.29,14.87,12.6,0,5.29-3.53,10.39-10.96,12.09,2.02,1.58,9.01,18.83,14.99,20.91v.38Zm-20.79-21.98c9.07,0,11.46-4.6,11.46-10.58,0-6.68-3.4-11.97-9.95-11.97-1.45,0-2.71.13-4.54.63v21.92h3.02Z"/>
  <path class="cls-1" d="m119.56,136.59c-1.32-.06-3.34-.13-5.48-.13-2.33,0-4.09.06-5.48.13v-.32c2.33-.38,3.15-.69,3.15-5.73v-37.35c-9.95,0-12.91,0-14.8,4.03h-.32c.5-2.52,1.39-3.97,2.14-8h.31c.19,2.02,1.7,2.08,13.67,2.08,14.24,0,16.63,0,18.46-1.58h.38c-.44,1.01-1.7,5.35-1.95,6.74h-.38c.06-.25.13-.63.13-.94,0-1.95-1.83-2.33-12.98-2.33v37.35c0,5.04.82,5.35,3.15,5.73v.32Z"/>
  <path class="cls-1" d="m168.75,137.85l-8.57-22.8-9.07,22.8h-.38l-14.87-40.12c-3.4-9.26-5.98-16.06-13.61-16.06-1.7,0-3.28.25-4.09.94l-.19-.5c2.39-1.83,5.1-2.83,7.69-2.83,6.24,0,9.95,4.35,12.41,11.02l14.24,38.23,6.74-16.57-6.11-16.25c-1.39-3.59-2.58-4.16-5.04-4.72v-.32c1.32.06,4.35.13,6.49.13,2.33,0,3.84-.06,5.23-.13v.32c-1.89.25-2.52,1.01-2.52,2.14,0,.88.38,2.02.88,3.34l3.59,9.26,1.2-2.96c1.57-3.84,2.58-6.61,2.58-8.57,0-1.83-.94-2.9-3.15-3.21v-.32c1.38.06,4.98.13,7.31.13,2.14,0,2.83-.06,4.16-.13v.32c-3.15.63-4.6,1.64-8.94,12.6l-2.02,5.1,7.62,19.84,9.76-25.76c1.51-3.97,2.33-6.61,2.33-8.44,0-2.02-1.07-3.02-3.46-3.46v-.19c1.39.06,5.54.13,7.87.13,2.14,0,2.83-.06,4.16-.13v.19c-3.15.88-4.54,1.07-8.94,12.72l-12.91,34.27h-.38Z"/>
  <path class="cls-1" d="m189.22,113.97c0-11.91,8.76-23.68,23.05-23.68,12.35,0,22.42,10.01,22.42,23.49s-9.83,23.24-22.93,23.24c-13.98,0-22.55-11.46-22.55-23.05Zm39.68.25c0-15.94-8.63-22.49-17.13-22.49s-16.69,6.36-16.69,22.11,7.5,21.79,16.69,21.79,17.13-6.87,17.13-21.42Zm-17.13,6.17c-.19-4.16-2.08-6.24-5.73-6.55v-.12c3.65-.32,5.54-2.39,5.73-6.55h.13c.19,4.16,2.08,6.3,5.73,6.55v.12c-3.65.25-5.54,2.39-5.73,6.55h-.13Z"/>
  <path class="cls-1" d="m271.98,136.65c-.57.06-.82.06-1.58.06-6.49-.25-7.31-1.01-14.68-14.99-.76-1.39-2.14-4.54-3.53-5.73h-4.03v14.55c0,5.04.82,5.35,3.15,5.73v.32c-1.32-.06-3.34-.13-5.48-.13-2.33,0-4.09.06-5.48.13v-.32c2.33-.38,3.15-.69,3.15-5.73v-33.83c0-4.22-.63-5.35-3.02-5.73v-.32c2.14.13,3.28.13,6.05.13,1.89,0,5.17-.13,6.55-.13,9.57,0,14.87,5.29,14.87,12.6,0,5.29-3.53,10.39-10.96,12.09,2.02,1.58,9.01,18.83,14.99,20.91v.38Zm-20.79-21.98c9.07,0,11.46-4.6,11.46-10.58,0-6.68-3.4-11.97-9.95-11.97-1.45,0-2.71.13-4.54.63v21.92h3.02Z"/>
  <path class="cls-1" d="m309.4,136.59c-1.32-.06-3.59-.13-5.73-.13-2.33,0-4.16.06-5.54.13v-.32c1.39-.12,1.83-.44,1.83-.94,0-.82-1.26-2.02-2.52-3.59l-14.49-17.57v16.38c0,5.04.82,5.35,3.15,5.73v.32c-1.32-.06-3.34-.13-5.48-.13-2.33,0-4.09.06-5.48.13v-.32c2.33-.38,3.15-.69,3.15-5.73v-33.83c0-5.04-.82-5.35-3.15-5.73v-.32c1.39.06,3.15.13,5.48.13,2.14,0,4.16-.06,5.48-.13v.32c-2.33.38-3.15.69-3.15,5.73v16.12l9.07-10.08c5.29-5.86,8.06-8.94,8.06-10.52,0-.76-.44-1.13-1.83-1.26v-.32c1.38.06,2.83.13,5.16.13,2.14,0,4.28-.06,5.61-.13v.32c-3.91.76-8,5.35-22.49,20.6l17.13,20.28c2.52,3.02,3.59,4.35,5.73,4.41v.32Z"/>
</svg>