<?xml version="1.0" encoding="UTF-8"?>
<svg id="screen_demo" data-name="screen demo" xmlns="http://www.w3.org/2000/svg" viewBox="0 0 496.69 223.07">
  <defs>
    <style>
      .cls-1 {
        fill: #ce3d3d;
        stroke-width: 0px;
      }
    </style>
  </defs>
  <path class="cls-1" d="m30.23,137.23c-1.4-.07-3.54-.13-5.82-.13-2.47,0-4.35.07-5.82.13v-.33c2.47-.4,3.34-.74,3.34-6.09v-35.91c0-4.48-.47-5.68-3.68-6.09v-.33c2.27.13,3.95.13,6.89.13,2.01,0,5.48-.13,6.96-.13,10.17,0,15.65,5.35,15.65,13.31,0,5.62-3.61,11.77-11.5,13.58-1.81.4-3.41.67-9.36.67v14.78c0,5.35.87,5.69,3.34,6.09v.33Zm-.13-22.61c9.63,0,12.17-5.55,12.17-11.9,0-7.09-3.61-12.71-10.57-12.71-1.54,0-2.88.13-4.82.67v23.94h3.21Z"/>
  <path class="cls-1" d="m94.37,137.23c-1.4-.07-3.54-.13-5.82-.13-2.47,0-4.35.07-5.82.13v-.33c2.47-.4,3.34-.74,3.34-6.09v-14.45c-4.41-.07-8.83-.07-13.18-.07s-8.23,0-12.31.07v14.45c0,5.35.87,5.69,3.34,6.09v.33c-1.4-.07-3.54-.13-5.82-.13-2.47,0-4.35.07-5.82.13v-.33c2.47-.4,3.34-.74,3.34-6.09v-35.91c0-5.35-.87-5.68-3.34-6.09v-.33c1.47.07,3.34.13,5.82.13,2.27,0,4.41-.07,5.82-.13v.33c-2.47.4-3.34.74-3.34,6.09v13.38c4.08.07,8.16.07,12.31.07s8.76,0,13.18-.07v-13.38c0-5.35-.87-5.68-3.34-6.09v-.33c1.47.07,3.34.13,5.82.13,2.27,0,4.41-.07,5.82-.13v.33c-2.47.4-3.34.74-3.34,6.09v35.91c0,5.35.87,5.69,3.34,6.09v.33Zm-8.29-26.89c-4.41-.07-8.83-.07-13.18-.07s-8.23,0-12.31.07v3.95c4.08.07,8.16.07,12.31.07s8.76,0,13.18-.07v-3.95Z"/>
  <path class="cls-1" d="m100.39,113.22c0-12.64,9.3-25.15,24.48-25.15,13.11,0,23.81,10.63,23.81,24.95s-10.43,24.68-24.34,24.68c-14.85,0-23.94-12.17-23.94-24.48Zm42.13.27c0-16.92-9.16-23.88-18.19-23.88s-17.72,6.75-17.72,23.47,7.96,23.14,17.72,23.14,18.19-7.29,18.19-22.74Zm-18.19,6.55c-.2-4.41-2.21-6.62-6.09-6.96v-.13c3.88-.33,5.88-2.54,6.09-6.96h.13c.2,4.41,2.21,6.69,6.09,6.96v.13c-3.88.27-5.89,2.54-6.09,6.96h-.13Z"/>
  <path class="cls-1" d="m173.89,137.23c-1.4-.07-3.54-.13-5.82-.13-2.47,0-4.35.07-5.82.13v-.33c2.47-.4,3.34-.74,3.34-6.09v-39.66c-10.57,0-13.71,0-15.72,4.28h-.33c.54-2.67,1.47-4.21,2.27-8.49h.33c.2,2.14,1.81,2.21,14.51,2.21h6.89c12.51,0,16.12-.13,19.19-4.08h.4c-2.81,4.55-8.49,5.28-8.63,9.56h-.4c.07-.27.13-.67.13-1,0-2.07-1.87-2.47-13.71-2.47v39.66c0,5.35.87,5.69,3.34,6.09v.33Z"/>
  <path class="cls-1" d="m185.79,113.22c0-12.64,9.3-25.15,24.48-25.15,13.11,0,23.81,10.63,23.81,24.95s-10.43,24.68-24.34,24.68c-14.85,0-23.94-12.17-23.94-24.48Zm42.13.27c0-16.92-9.16-23.88-18.19-23.88s-17.72,6.75-17.72,23.47,7.96,23.14,17.72,23.14,18.19-7.29,18.19-22.74Zm-18.19,6.55c-.2-4.41-2.21-6.62-6.09-6.96v-.13c3.88-.33,5.88-2.54,6.09-6.96h.13c.2,4.41,2.21,6.69,6.09,6.96v.13c-3.88.27-5.89,2.54-6.09,6.96h-.13Z"/>
  <path class="cls-1" d="m282.97,134.56c-.74-.2-1.54-.33-2.68-.33-4.95,0-7.62,3.54-16.38,3.54-17.12,0-24.81-12.17-24.81-24.68s9.1-24.95,25.41-24.95c5.28,0,10.23.87,16.12,3.68.33-.8.54-1.87.67-3.21h.33c-.2,3.08-.2,6.15-.2,9.7,0,.6,0,1.2.07,2.01h-.33c-.74-7.49-7.83-10.7-16.39-10.7-9.23,0-19.8,6.29-19.8,23.21,0,14.04,7.62,23.47,19.13,23.47,7.62,0,12.37-2.67,12.37-8.49v-7.49c0-5.62-1.34-5.68-3.81-6.09v-.33c1.47.07,3.81.13,6.29.13,2.27,0,4.01-.07,5.42-.13v.33c-2.41.47-2.94.87-2.94,6.09v4.82c0,7.09,0,8.56,1.54,9.23v.2Z"/>
  <path class="cls-1" d="m323.36,137.3c-.6.07-.87.07-1.67.07-7.56-.27-8.43-1.61-17.99-20.2-1-2.01-1.34-2.47-3.54-3.68l.27-.54c1.2.67,2.81.94,4.08.94,6.09,0,8.96-4.82,8.96-11.1,0-7.76-3.88-12.77-10.7-12.77-1.47,0-3.14.2-4.68.67v40.13c0,5.35.87,5.69,3.34,6.09v.33c-1.4-.07-3.54-.13-5.82-.13-2.47,0-4.35.07-5.82.13v-.33c2.47-.4,3.34-.74,3.34-6.09v-35.91c0-5.35-1.14-5.68-3.68-6.09v-.33c1.47.07,3.54.13,5.35.13,3.68,0,5.35-.13,7.89-.13,11.57,0,16.25,5.82,16.25,13.17,0,6.02-3.75,12.37-12.1,13.31,3.95,3.01,9.96,19.53,16.52,21.94v.4Z"/>
  <path class="cls-1" d="m361.88,137.23c-1.4-.07-3.54-.13-5.82-.13-2.47,0-4.48.07-5.95.13v-.33c2.21-.13,2.94-1.07,2.94-2.34,0-.94-.4-2.14-.8-3.48l-2.27-7.29c-3.61-.07-7.22-.07-10.83-.07-2.54,0-5.02,0-7.56.07l-2.07,5.62c-.6,1.67-1.14,3.28-1.14,4.55,0,1.54.8,2.68,3.08,2.94v.33c-1.47-.07-3.75-.13-6.22-.13-2.27,0-3.14.07-4.55.13v-.33c3.41-.8,4.48-1.61,7.36-9.23l15.11-40.19h.67l14.04,44.41c1.34,4.21,1.47,4.68,4.01,5.02v.33Zm-13.84-19.53h-7.16c-2.41,0-4.68,0-7.09.07l-1.47,3.95c2.27.07,4.55.07,6.82.07,3.41,0,6.75,0,10.17-.07l-1.27-4.01Zm-6.49-20.93l-6.96,18.93c2.07.07,4.15.07,6.29.07h6.55l-5.88-18.99Z"/>
  <path class="cls-1" d="m377.26,137.23c-1.4-.07-3.54-.13-5.82-.13-2.47,0-4.35.07-5.82.13v-.33c2.47-.4,3.34-.74,3.34-6.09v-35.91c0-4.48-.47-5.68-3.68-6.09v-.33c2.27.13,3.95.13,6.89.13,2.01,0,5.48-.13,6.96-.13,10.17,0,15.65,5.35,15.65,13.31,0,5.62-3.61,11.77-11.5,13.58-1.81.4-3.41.67-9.36.67v14.78c0,5.35.87,5.69,3.34,6.09v.33Zm-.13-22.61c9.63,0,12.17-5.55,12.17-11.9,0-7.09-3.61-12.71-10.57-12.71-1.54,0-2.88.13-4.82.67v23.94h3.21Z"/>
  <path class="cls-1" d="m441.4,137.23c-1.4-.07-3.54-.13-5.82-.13-2.47,0-4.35.07-5.82.13v-.33c2.47-.4,3.34-.74,3.34-6.09v-14.45c-4.41-.07-8.83-.07-13.18-.07s-8.23,0-12.31.07v14.45c0,5.35.87,5.69,3.34,6.09v.33c-1.4-.07-3.54-.13-5.82-.13-2.47,0-4.35.07-5.82.13v-.33c2.47-.4,3.34-.74,3.34-6.09v-35.91c0-5.35-.87-5.68-3.34-6.09v-.33c1.47.07,3.34.13,5.82.13,2.27,0,4.41-.07,5.82-.13v.33c-2.47.4-3.34.74-3.34,6.09v13.38c4.08.07,8.16.07,12.31.07s8.76,0,13.18-.07v-13.38c0-5.35-.87-5.68-3.34-6.09v-.33c1.47.07,3.34.13,5.82.13,2.27,0,4.41-.07,5.82-.13v.33c-2.47.4-3.34.74-3.34,6.09v35.91c0,5.35.87,5.69,3.34,6.09v.33Zm-8.29-26.89c-4.41-.07-8.83-.07-13.18-.07s-8.23,0-12.31.07v3.95c4.08.07,8.16.07,12.31.07s8.76,0,13.18-.07v-3.95Z"/>
  <path class="cls-1" d="m469.96,137.23c-1.41-.07-3.54-.13-5.82-.13-2.47,0-4.35.07-5.82.13v-.33c2.47-.47,3.34-.74,3.34-6.09v-10.03l-12.84-25.82c-4.48-8.96-7.76-15.72-14.85-15.72-2.14,0-4.41.54-5.28,1.54l-.33-.54c2.81-2.54,5.89-3.88,9.1-3.88,5.89,0,9.9,4.15,13.04,10.5l14.98,30.56,8.29-16.12c3.54-6.96,4.21-8.03,4.21-10.1,0-1.34-.74-2.07-2.74-2.41v-.33c1.47.07,2.41.13,4.88.13,2.27,0,3.68-.07,5.08-.13v.33c-3.14.67-2.81.94-9.36,13.38l-9.23,17.59v11.03c0,5.35.87,5.62,3.34,6.09v.33Z"/>
</svg>