<?xml version="1.0" encoding="UTF-8"?>
<svg id="screen_demo" data-name="screen demo" xmlns="http://www.w3.org/2000/svg" viewBox="0 0 770.44 430.01">
  <defs>
    <style>
      .cls-1 {
        fill: #ce3d3d;
        stroke-width: 0px;
      }
    </style>
  </defs>
  <g>
    <path class="cls-1" d="m115.5,103.1c-7.63-21.49-18.94-31.95-33.93-31.95-11.88,0-19.23,6.5-19.23,18.38,0,16.4,14.14,24.6,31.95,36.76,23.19,15.83,33.08,27.71,33.08,46.65,0,25.45-17.81,44.67-49.76,44.67-13.29,0-24.6-3.39-33.65-3.39-1.98,0-5.37,0-7.63.28,1.98-3.11,2.54-7.63,2.54-12.72,0-5.37-.57-10.18-.57-14.99,0-6.5,1.13-13.57,6.22-20.07h2.83c-.28,1.98-.57,5.09-.57,8.48,0,19.51,9.9,34.49,30.25,34.49,13.85,0,24.31-6.79,24.31-22.62,0-14.98-9.33-22.05-28.56-35.34-21.21-14.7-36.47-26.58-36.47-49.76s13.57-38.74,44.11-38.74c14.14,0,23.75,3.68,31.67,3.68,2.26,0,4.24-.28,6.78-.56-.56,5.65-.85,14.14-.85,20.92s.28,10.74.28,15.83h-2.83Z"/>
    <path class="cls-1" d="m240.2,215.35c-6.22-.28-21.21-.57-31.67-.57s-25.45.28-31.67.57v-2.83c13.01-2.26,14.14-7.92,14.14-41.28v-6.5l-31.39-62.49c-7.92-15.83-15.27-30.25-28.84-35.06v-2.83c5.94.28,25.45.57,35.06.57,10.46,0,30.82-.28,37.04-.57v2.83c-8.76,1.7-11.87,5.94-11.87,12.44,0,3.96,1.41,10.74,7.92,23.47l18.66,37.32,8.48-15.55c9.61-17.81,17.25-32.23,17.25-42.41,0-7.63-4.52-13.01-15.55-15.27v-2.83c6.22.28,21.2.57,31.67.57,9.61,0,19.23-.28,25.16-.57v2.83c-16.68,4.81-29.69,28.27-42.98,53.16l-15.55,29.12v21.77c0,33.36,1.13,39.02,14.14,41.28v2.83Z"/>
    <path class="cls-1" d="m390.62,162.48c-.28,13.57-.85,33.93-.85,52.87-35.34-.57-53.44-.57-70.97-.57-10.46,0-22.62.28-31.67.57v-2.83c13.57-2.26,14.14-9.61,14.14-41.28v-62.77c0-33.36-1.13-39.02-14.14-41.28v-2.83c6.22.28,21.21.57,31.67.57s26.86-.28,33.08-.57v2.83c-14.14,2.26-15.55,7.92-15.55,41.28v96.13c3.39.57,9.61,1.13,14.98,1.13,14.7,0,25.16-4.81,36.47-43.26h2.83Z"/>
    <path class="cls-1" d="m449.43,219.31l-46.65-117.05c-8.2-20.64-12.44-30.25-26.01-35.06v-2.83c5.94.28,25.45.57,35.63.57s30.25-.28,36.47-.57v2.83c-8.76,1.7-11.87,6.79-11.87,13.57,0,3.68.85,10.18,5.09,22.34l22.9,64.18,15.83-42.41c4.52-12.16,11.03-31.1,11.03-41.28,0-8.76-4.52-13.85-15.83-16.4v-2.83c6.22.28,21.21.57,31.39.57s19.51-.28,25.45-.57v2.83c-16.68,4.81-26.86,24.32-40.15,58.81l-35.91,93.31h-7.35Z"/>
    <path class="cls-1" d="m591.94,215.35c-6.22-.28-19.23-.57-29.69-.57s-23.47.28-29.69.57v-4.24c8.48-1.7,12.16-3.11,12.16-25.73v-67.86c0-17.25-.28-23.19-8.77-25.45v-4.24c16.12,0,31.67-3.11,43.83-8.76v106.31c0,22.62,3.68,24.03,12.16,25.73v4.24Zm-31.67-139.67c-.28-14.7-9.61-25.73-23.47-26.3v-1.41c13.86-.28,23.19-12.16,23.47-26.58h1.41c.28,14.42,9.61,26.29,23.47,26.58v1.41c-13.85.28-23.19,11.59-23.47,26.3h-1.41Z"/>
    <path class="cls-1" d="m724.55,165.31c-.28,13.57-.85,31.1-.85,50.05-35.34-.57-56.55-.57-74.08-.57-10.46,0-22.62.28-31.67.57v-2.83c13.57-2.26,14.14-9.61,14.14-41.28v-62.77c0-31.67-.57-39.3-14.14-41.28v-2.83c9.05.28,21.21.57,31.67.57,33.93,0,53.72,0,74.93-.57-.28,6.5-.56,15.83-.56,25.45,0,5.66,0,13.85.28,19.51h-2.83c-10.46-34.21-22.34-35.34-39.02-35.34-4.81,0-11.87.57-15.27,1.13v57.4h4.52c15.55,0,23.75-2.26,29.69-21.49h2.83c-.57,8.48-1.13,14.7-1.13,22.9,0,11.31.57,18.38,1.13,25.16h-2.83c-4.24-16.12-14.14-18.1-29.69-18.1h-4.52v63.62c3.39.57,9.61,1.13,14.98,1.13,18.94,0,27.99-1.7,39.58-40.43h2.83Z"/>
  </g>
  <g>
    <path class="cls-1" d="m110.83,324.93c-.21,10.04-.63,25.1-.63,39.11-26.14-.42-39.52-.42-52.49-.42-7.74,0-16.73.21-23.42.42v-2.09c10.04-1.67,10.46-7.11,10.46-30.53v-46.43c0-24.68-.84-28.86-10.46-30.53v-2.09c4.6.21,15.68.42,23.42.42s19.87-.21,24.47-.42v2.09c-10.46,1.67-11.5,5.86-11.5,30.53v71.1c2.51.42,7.11.84,11.08.84,10.87,0,18.61-3.55,26.98-32h2.09Z"/>
    <path class="cls-1" d="m294.03,364.04c-4.6-.21-15.68-.42-23.42-.42s-18.82.21-23.42.42v-2.09c9.62-1.67,10.46-5.86,10.46-30.53v-4.81l-23.21-46.22c-5.86-11.71-11.29-22.38-21.33-25.93v-2.09c4.39.21,18.82.42,25.93.42,7.74,0,22.79-.21,27.4-.42v2.09c-6.48,1.25-8.78,4.39-8.78,9.2,0,2.93,1.05,7.95,5.86,17.36l13.8,27.61,6.27-11.5c7.11-13.18,12.76-23.84,12.76-31.37,0-5.65-3.35-9.62-11.5-11.29v-2.09c4.6.21,15.68.42,23.42.42,7.11,0,14.22-.21,18.61-.42v2.09c-12.34,3.56-21.96,20.91-31.79,39.32l-11.5,21.54v16.1c0,24.68.84,28.86,10.46,30.53v2.09Z"/>
    <path class="cls-1" d="m538.5,361.11c-5.86,2.51-11.71,3.35-17.57,3.35-29.91,0-33.25-21.96-47.47-48.94h-6.06v15.89c0,24.68.84,28.86,10.46,30.53v2.09c-4.6-.21-15.68-.42-23.42-.42s-18.82.21-23.42.42v-2.09c9.62-1.67,10.46-5.86,10.46-30.53v-50.61c0-19.03-.63-24.89-10.46-26.35v-2.09c4.6.21,15.48.42,23.84.42s19.66-.21,24.05-.21c33.88,0,50.19,12.34,50.19,30.32,0,9.83-4.81,22.8-27.82,30.11,13.38,28.65,27.4,42.66,37.23,46.01v2.09Zm-65.67-51.03c20.7,0,26.14-9.83,26.14-26.56s-5.23-25.1-20.29-25.1c-3.97,0-8.16.63-11.29,1.46v50.19h5.44Z"/>
    <path class="cls-1" d="m629.27,324.93c-.21,10.04-.63,25.1-.63,39.11-26.14-.42-39.52-.42-52.49-.42-7.74,0-16.73.21-23.42.42v-2.09c10.04-1.67,10.46-7.11,10.46-30.53v-46.43c0-24.68-.84-28.86-10.46-30.53v-2.09c4.6.21,15.68.42,23.42.42s19.87-.21,24.47-.42v2.09c-10.46,1.67-11.5,5.86-11.5,30.53v71.1c2.51.42,7.11.84,11.08.84,10.88,0,18.61-3.55,26.98-32h2.09Z"/>
    <g>
      <path class="cls-1" d="m695.35,356.93c-3.97,0-8.57-.42-11.08-.84v-31.34h0v-39.47h0v-24.97c2.51-.42,7.74-.84,11.29-.84,12.34,0,21.12.84,28.86,26.14h2.09c-.21-4.18-.21-10.25-.21-14.43,0-7.11.21-14.01.42-18.82-15.68.42-30.32.42-55.42.42-7.74,0-16.73-.21-23.42-.42v2.09c10.04,1.46,10.46,7.11,10.46,30.53v46.43c0,23.42-.42,28.86-10.46,30.53v2.09c6.69-.21,15.68-.42,23.42-.42,12.97,0,28.65,0,54.79.42,0-14.01.42-26.98.63-37.02h-2.09c-8.57,28.65-15.27,29.91-29.28,29.91Z"/>
      <path class="cls-1" d="m701.28,318.86c-.13-7.33-4.89-12.86-11.7-13.11v-.64c6.81-.13,11.57-6.04,11.7-13.24h.64c.13,7.2,4.89,13.11,11.7,13.24v.64c-6.81.13-11.57,5.79-11.7,13.11h-.64Z"/>
    </g>
    <g>
      <path class="cls-1" d="m376.24,356.96c-3.97,0-8.57-.42-11.08-.84v-31.34h0v-39.47h0v-24.97c2.51-.42,7.74-.84,11.29-.84,12.34,0,21.12.84,28.86,26.14h2.09c-.21-4.18-.21-10.25-.21-14.43,0-7.11.21-14.01.42-18.82-15.68.42-30.32.42-55.42.42-7.74,0-16.73-.21-23.42-.42v2.09c10.04,1.46,10.46,7.11,10.46,30.53v46.43c0,23.42-.42,28.86-10.46,30.53v2.09c6.69-.21,15.68-.42,23.42-.42,12.97,0,28.65,0,54.79.42,0-14.01.42-26.98.63-37.02h-2.09c-8.57,28.65-15.27,29.91-29.28,29.91Z"/>
      <path class="cls-1" d="m382.16,318.88c-.13-7.33-4.89-12.86-11.7-13.11v-.64c6.81-.13,11.57-6.04,11.7-13.24h.64c.13,7.2,4.89,13.11,11.7,13.24v.64c-6.81.13-11.57,5.79-11.7,13.11h-.64Z"/>
    </g>
    <g>
      <path class="cls-1" d="m176.92,356.93c-3.97,0-8.57-.42-11.08-.84v-31.34h0v-39.47h0v-24.97c2.51-.42,7.74-.84,11.29-.84,12.34,0,21.12.84,28.86,26.14h2.09c-.21-4.18-.21-10.25-.21-14.43,0-7.11.21-14.01.42-18.82-15.68.42-30.32.42-55.42.42-7.74,0-16.73-.21-23.42-.42v2.09c10.04,1.46,10.46,7.11,10.46,30.53v46.43c0,23.42-.42,28.86-10.46,30.53v2.09c6.69-.21,15.68-.42,23.42-.42,12.97,0,28.65,0,54.79.42,0-14.01.42-26.98.63-37.02h-2.09c-8.57,28.65-15.27,29.91-29.28,29.91Z"/>
      <path class="cls-1" d="m182.85,318.85c-.13-7.33-4.89-12.86-11.7-13.11v-.64c6.81-.13,11.57-6.04,11.7-13.24h.64c.13,7.2,4.89,13.11,11.7,13.24v.64c-6.81.13-11.57,5.79-11.7,13.11h-.64Z"/>
    </g>
  </g>
  <path class="cls-1" d="m31.98,233.5c229.25-2.8,463.86-2.82,693.11,0-229.25,2.82-463.86,2.8-693.11,0h0Z"/>
</svg>