<?xml version="1.0" encoding="UTF-8"?>
<svg id="screen_demo" data-name="screen demo" xmlns="http://www.w3.org/2000/svg" viewBox="0 0 337.11 376.26">
  <defs>
    <style>
      .cls-1 {
        fill: #ce3d3d;
        stroke-width: 0px;
      }
    </style>
  </defs>
  <g>
    <path class="cls-1" d="m32.72,80.98c-1.6-.08-4.04-.15-6.63-.15-2.82,0-4.95.08-6.63.15v-.38c2.82-.46,3.81-.84,3.81-6.93v-40.9c0-6.09-1.29-6.47-4.19-6.93v-.38c1.68.08,4.04.15,6.09.15,4.19,0,6.09-.15,8.99-.15,13.18,0,18.51,6.63,18.51,15.01,0,7.62-5.41,15.23-15.39,15.23-2.13,0-4.49-.53-6.02-1.75l.3-.61c1.37.76,3.2,1.07,4.65,1.07,6.93,0,10.21-5.48,10.21-12.64,0-8.84-4.42-14.55-12.19-14.55-1.68,0-3.58.23-5.33.76v45.7c0,6.09.99,6.47,3.81,6.93v.38Z"/>
    <path class="cls-1" d="m105.78,80.98c-1.6-.08-4.04-.15-6.63-.15-2.82,0-4.95.08-6.63.15v-.38c2.82-.46,3.81-.84,3.81-6.93v-16.45c-5.03-.08-10.05-.08-15.01-.08s-9.37,0-14.02.08v16.45c0,6.09.99,6.47,3.81,6.93v.38c-1.6-.08-4.04-.15-6.63-.15-2.82,0-4.95.08-6.63.15v-.38c2.82-.46,3.81-.84,3.81-6.93v-40.9c0-6.09-.99-6.47-3.81-6.93v-.38c1.68.08,3.81.15,6.63.15,2.59,0,5.03-.08,6.63-.15v.38c-2.82.46-3.81.84-3.81,6.93v15.23c4.65.08,9.29.08,14.02.08s9.98,0,15.01-.08v-15.23c0-6.09-.99-6.47-3.81-6.93v-.38c1.68.08,3.81.15,6.63.15,2.59,0,5.03-.08,6.63-.15v.38c-2.82.46-3.81.84-3.81,6.93v40.9c0,6.09.99,6.47,3.81,6.93v.38Zm-9.45-30.62c-5.03-.08-10.05-.08-15.01-.08s-9.37,0-14.02.08v4.49c4.65.08,9.29.08,14.02.08s9.98,0,15.01-.08v-4.49Z"/>
    <path class="cls-1" d="m112.64,53.64c0-14.4,10.59-28.64,27.88-28.64,14.93,0,27.12,12.11,27.12,28.41s-11.88,28.11-27.73,28.11c-16.91,0-27.27-13.86-27.27-27.88Zm47.99.3c0-19.27-10.44-27.19-20.72-27.19s-20.19,7.69-20.19,26.74,9.06,26.36,20.19,26.36,20.72-8.3,20.72-25.9Zm-20.72,7.46c-.23-5.03-2.51-7.54-6.93-7.92v-.15c4.42-.38,6.7-2.89,6.93-7.92h.15c.23,5.03,2.51,7.62,6.93,7.92v.15c-4.42.3-6.7,2.89-6.93,7.92h-.15Z"/>
    <path class="cls-1" d="m196.35,80.98c-1.6-.08-4.04-.15-6.63-.15-2.82,0-4.95.08-6.63.15v-.38c2.82-.46,3.81-.84,3.81-6.93V28.5c-12.04,0-15.62,0-17.9,4.88h-.38c.61-3.05,1.68-4.8,2.59-9.67h.38c.23,2.44,2.06,2.51,16.53,2.51,17.21,0,20.11,0,22.32-1.9h.46c-.53,1.22-2.06,6.47-2.36,8.15h-.46c.08-.3.15-.76.15-1.14,0-2.36-2.21-2.82-15.69-2.82v45.17c0,6.09.99,6.47,3.81,6.93v.38Z"/>
    <path class="cls-1" d="m209.91,53.64c0-14.4,10.59-28.64,27.88-28.64,14.93,0,27.12,12.11,27.12,28.41s-11.88,28.11-27.73,28.11c-16.91,0-27.27-13.86-27.27-27.88Zm47.99.3c0-19.27-10.44-27.19-20.72-27.19s-20.19,7.69-20.19,26.74,9.06,26.36,20.19,26.36,20.72-8.3,20.72-25.9Zm-20.72,7.46c-.23-5.03-2.51-7.54-6.93-7.92v-.15c4.42-.38,6.7-2.89,6.93-7.92h.15c.23,5.03,2.51,7.62,6.93,7.92v.15c-4.42.3-6.7,2.89-6.93,7.92h-.15Z"/>
  </g>
  <g>
    <path class="cls-1" d="m281.15,120.34c6.4,0,6.47-1.52,6.93-4.34h.38c-.08,1.68-.15,4.34-.15,7.16,0,2.59.08,4.57.15,6.17h-.38c-.53-2.74-.99-3.35-6.93-3.35h-14.93c-1.45-4.8-4.95-9.06-4.95-18.43,0-19.5,13.86-29.78,28.11-29.78s28.41,10.36,28.41,28.95c0,7.08-1.6,12.42-3.73,19.5-1.68-.15-4.8-.23-7.16-.23-1.29,0-2.44,0-2.97.08v-.38c8.53-.84,12.19-9.14,12.19-18.66,0-10.51-7.16-22.55-26.43-22.55-16,0-26.74,10.21-26.74,23.31,0,4.11,1.22,9.45,4.34,12.57h13.86Z"/>
    <path class="cls-1" d="m261.8,173.74c-.08-.69-.08-.99-.08-1.9.3-7.85,1.22-8.84,18.13-17.75,1.68-.91,5.48-2.59,6.93-4.27v-4.88h-17.6c-6.09,0-6.47.99-6.93,3.81h-.38c.08-1.6.15-4.04.15-6.63,0-2.82-.08-4.95-.15-6.63h.38c.46,2.82.84,3.81,6.93,3.81h40.9c5.1,0,6.47-.76,6.93-3.66h.38c-.15,2.59-.15,3.96-.15,7.31,0,2.29.15,6.25.15,7.92,0,11.58-6.4,17.98-15.23,17.98-6.4,0-12.57-4.27-14.62-13.25-1.9,2.44-22.78,10.89-25.29,18.13h-.46Zm26.58-25.14c0,10.97,5.56,13.86,12.8,13.86,8.07,0,14.47-4.11,14.47-12.04,0-1.75-.15-3.28-.76-5.48h-26.51v3.66Z"/>
    <path class="cls-1" d="m251.14,232.25c-1.98-2.82-3.05-5.87-3.05-8.76,0-8.15,6.93-12.42,16.15-15.31l12.95-4.11c.08-4.11.08-8.23.08-12.34,0-2.89,0-5.71-.08-8.61l-6.4-2.36c-1.9-.69-3.73-1.29-5.18-1.29-1.75,0-3.05.91-3.35,3.5h-.38c.08-1.68.15-4.27.15-7.08,0-2.59-.08-3.58-.15-5.18h.38c.91,3.88,1.83,5.1,10.51,8.38l45.78,17.21v.69l-47.46,14.93c-11.65,3.66-20.34,6.32-20.34,16.3,0,1.6.3,2.97.91,3.88l-.53.15Zm32.98-30.39v-8.15c0-2.74,0-5.41-.08-8.07l-4.49-1.68c-.08,2.59-.08,5.18-.08,7.77,0,3.88,0,7.69.08,11.58l4.57-1.45Zm23.84-7.46l-21.56-7.92c-.08,2.44-.08,4.8-.08,7.24v7.46l21.63-6.78Z"/>
    <path class="cls-1" d="m261.88,233.85c.08-1.6.15-4.04.15-6.63,0-2.82-.08-4.95-.15-6.63h.38c.46,2.82.84,3.81,6.93,3.81h40.9c6.09,0,6.47-1.29,6.93-4.19h.38c-.08,1.68-.15,4.04-.15,6.09,0,4.19.15,6.09.15,8.99,0,13.18-6.63,18.51-15.01,18.51-7.62,0-15.23-5.41-15.23-15.39,0-2.13.53-4.49,1.75-6.02l.61.3c-.76,1.37-1.07,3.2-1.07,4.65,0,6.93,5.48,10.21,12.64,10.21,8.84,0,14.55-4.42,14.55-12.19,0-1.68-.23-3.58-.76-5.33h-45.7c-6.09,0-6.47.99-6.93,3.81h-.38Z"/>
    <path class="cls-1" d="m261.88,306.9c.08-1.6.15-4.04.15-6.63,0-2.82-.08-4.95-.15-6.63h.38c.46,2.82.84,3.81,6.93,3.81h21.25c.08-5.03.08-10.05.08-15.01s0-9.37-.08-14.02h-21.25c-6.09,0-6.47.99-6.93,3.81h-.38c.08-1.6.15-4.04.15-6.63,0-2.82-.08-4.95-.15-6.63h.38c.46,2.82.84,3.81,6.93,3.81h40.9c6.09,0,6.47-.99,6.93-3.81h.38c-.08,1.68-.15,3.81-.15,6.63,0,2.59.08,5.03.15,6.63h-.38c-.46-2.82-.84-3.81-6.93-3.81h-17.29c-.08,4.65-.08,9.29-.08,14.02s0,9.98.08,15.01h17.29c6.09,0,6.47-.99,6.93-3.81h.38c-.08,1.68-.15,3.81-.15,6.63,0,2.59.08,5.03.15,6.63h-.38c-.46-2.82-.84-3.81-6.93-3.81h-40.9c-6.09,0-6.47.99-6.93,3.81h-.38Z"/>
    <path class="cls-1" d="m261.88,340.12c.08-1.6.15-4.04.15-6.63,0-2.82-.08-4.95-.15-6.63h.38c.53,2.82.84,3.81,6.93,3.81h10.28c9.22,0,36.18-13.41,36.18-19.35,0-.69,0-1.52-.23-2.06l.69-.15c1.22,2.36,1.75,3.5,1.75,6.47,0,5.94-14.4,13.56-29.17,17.98,14.47,4.95,29.17,13.18,29.17,21.18,0,1.6-.23,2.36-1.07,4.11l-.46-.08c.15-.69.23-1.07.23-1.9,0-9.52-29.86-20.57-37.4-20.57h-9.98c-6.09,0-6.4.99-6.93,3.81h-.38Z"/>
  </g>
</svg>